<svg width="75" height="138" viewBox="0 0 75 138" fill="none" xmlns="http://www.w3.org/2000/svg">
<path fill-rule="evenodd" clip-rule="evenodd" d="M28.1789 9.65472C16.1102 23.087 16.3036 22.7175 19.5778 26.1092C22.0249 28.6453 22.0882 28.8711 20.3571 28.8711C19.1276 28.8711 15.6343 25.7269 10.3284 19.8464C5.85042 14.8825 1.77402 10.9228 1.26974 11.0466C0.693034 11.1886 0.352876 18.6794 0.352876 31.2224V51.1733H37.486H74.6192L74.8667 31.6657C75.0034 20.9369 74.7576 11.8039 74.3212 11.3706C73.8729 10.9255 69.9872 14.472 65.4138 19.4987C59.8677 25.5958 56.5606 28.5115 54.9579 28.7181L52.6144 29.0213L55.1357 26.3932C56.5221 24.9477 57.6571 23.2864 57.6571 22.702C57.6571 21.6533 38.931 0.379723 37.6749 0.00194999C37.3192 -0.105465 33.0456 4.23846 28.1789 9.65472ZM42.9368 17.2402C48.3234 23.1189 48.4243 22.3097 41.314 30.292C37.3687 34.7215 37.3403 34.7343 35.8128 32.8272C34.9683 31.7731 32.6844 29.0231 30.7379 26.7164L27.1988 22.5227L32.0059 17.0135C34.6493 13.9832 37.1165 11.6228 37.4879 11.7675C37.8592 11.9123 40.3109 14.3746 42.9368 17.2402ZM12.5912 34.8426C14.6698 37.426 14.9898 37.5125 21.8525 37.335C28.8519 37.1548 29.0078 37.2003 32.0279 40.2934L35.0948 43.4358H21.6205H8.14626L8.1756 36.381C8.19944 30.6616 8.41582 29.5947 9.32168 30.7463C9.93598 31.5273 11.4076 33.3707 12.5912 34.8426ZM66.063 37.0619L65.7586 43.4358H52.8555H39.9524L41.677 41.3876C45.119 37.3013 45.9909 36.9772 53.0453 37.1611C59.8815 37.3395 59.8989 37.3341 62.6724 34.0352C64.1999 32.2173 65.6568 30.7208 65.909 30.7089C66.1611 30.6971 66.2308 33.5564 66.063 37.0619ZM0.278609 56.4994C0.012717 57.1867 -0.0789694 70.4024 0.0741476 85.8665L0.352876 113.984L3.10348 118.919C5.93202 123.996 12.2933 129.758 16.9629 131.474C18.417 132.008 23.6267 133.695 28.5392 135.223L37.4723 138L42.2923 136.373C47.6743 134.557 48.5233 132.601 44.3625 131.607C31.7492 128.594 17.5249 123.168 14.3259 120.15C8.9696 115.096 8.81557 114.266 8.33422 87.8127L7.89137 63.4623L40.3384 63.4486C58.1843 63.4404 73.3319 63.0909 73.9994 62.6703C74.7301 62.2106 75.095 60.674 74.9163 58.8152L74.6192 55.7248L37.6905 55.4872C7.05977 55.2897 0.67928 55.4626 0.278609 56.4994ZM13.3421 67.7106C13.0057 68.0438 12.7306 77.9296 12.7306 89.6779C12.7306 109.511 12.8626 111.25 14.5808 114.009C15.5976 115.644 17.4268 117.629 18.6444 118.421C19.8611 119.213 28.9968 122.508 38.9457 125.742L57.0327 131.623L60.3252 129.948C64.883 127.627 70.0688 122.241 72.5407 117.261C74.346 113.623 74.6605 111.357 74.9364 100.007C75.1235 92.2868 74.8878 86.5774 74.3597 86.0531C73.165 84.867 50.4973 83.9731 42.6828 84.8042L36.4674 85.465L36.748 88.8013L37.0276 92.1366L52.0551 92.3869L67.0835 92.6382L66.6085 102.586C66.2023 111.086 65.7953 113.107 63.8047 116.478C61.1706 120.94 57.8772 123.092 54.7433 122.397C47.9117 120.881 24.4216 112.696 22.8501 111.283C21.097 109.708 20.9824 108.552 20.9824 92.4643V75.3234L47.8008 75.0822L74.6192 74.841L74.9163 71.7505C75.095 69.8917 74.7301 68.3551 73.9994 67.8954C72.5718 66.997 14.2398 66.8185 13.3421 67.7106ZM36.9267 97.5319C36.6499 98.2465 36.56 99.7831 36.726 100.946C36.9744 102.686 37.7574 103.168 41.1535 103.675C43.4228 104.014 47.3029 104.055 49.7767 103.767L54.2739 103.243L53.7128 106.679C53.0673 110.629 50.7953 113.529 48.3463 113.529C47.4157 113.529 46.6547 114.114 46.6547 114.828C46.6547 116.709 56.1883 118.757 57.9991 117.265C60.7791 114.975 62.2415 110.109 62.2415 103.15V96.2329H49.8353C39.9341 96.2329 37.3274 96.4951 36.9267 97.5319Z" fill="#DFC370"/>
</svg>
